<svg height="1550" width="720" xmlns="http://www.w3.org/2000/svg">
<rect height="1550" fill="#555" width="720"></rect>
<text fill="#7f7" font-family="Courier New" font-size="12" xml:space="preserve">
<tspan x="10" y="26">2016-09-28 15:40:00 +0800</tspan>
<tspan x="10" y="42">cleanup</tspan>
<tspan x="10" y="58"></tspan>
<tspan x="10" y="74">2016-09-28 15:31:44 +0800</tspan>
<tspan x="10" y="90">minor</tspan>
<tspan x="10" y="106"></tspan>
<tspan x="10" y="122">2016-09-28 15:26:47 +0800</tspan>
<tspan x="10" y="138">- upgrade to electron v1.3.7</tspan>
<tspan x="10" y="154"></tspan>
<tspan x="10" y="170">2016-08-10 06:13:07 +0200</tspan>
<tspan x="10" y="186">streamline build</tspan>
<tspan x="10" y="202"></tspan>
<tspan x="10" y="218">2016-08-10 00:02:24 +0200</tspan>
<tspan x="10" y="234">update README.md</tspan>
<tspan x="10" y="250"></tspan>
<tspan x="10" y="266">2016-08-07 22:24:07 +0200</tspan>
<tspan x="10" y="282">cleanup</tspan>
<tspan x="10" y="298"></tspan>
<tspan x="10" y="314">2016-08-07 22:14:41 +0200</tspan>
<tspan x="10" y="330">cleanup</tspan>
<tspan x="10" y="346"></tspan>
<tspan x="10" y="362">2016-08-07 21:46:38 +0200</tspan>
<tspan x="10" y="378">- npm publish 2016.7.2</tspan>
<tspan x="10" y="394">- update README.md</tspan>
<tspan x="10" y="410"></tspan>
<tspan x="10" y="426">2016-07-31 14:31:59 +0200</tspan>
<tspan x="10" y="442">- npm publish 2016.7.1</tspan>
<tspan x="10" y="458">- upgrade to electron v1.2.8</tspan>
<tspan x="10" y="474"></tspan>
<tspan x="10" y="490">2016-06-09 04:43:05 +0300</tspan>
<tspan x="10" y="506">- npm publish 2016.5.1</tspan>
<tspan x="10" y="522">- upgrade to electron @ 1.1.3</tspan>
<tspan x="10" y="538"></tspan>
<tspan x="10" y="554">2016-05-23 18:51:01 +0300</tspan>
<tspan x="10" y="570">- npm publish 2016.4.3</tspan>
<tspan x="10" y="586">- fix missing README.md in published package</tspan>
<tspan x="10" y="602"></tspan>
<tspan x="10" y="618">2016-05-23 18:02:40 +0300</tspan>
<tspan x="10" y="634">- npm publish 2016.4.2</tspan>
<tspan x="10" y="650">- upgrade to electron @ 1.0.2</tspan>
<tspan x="10" y="666"></tspan>
<tspan x="10" y="682">2016-04-21 01:03:37 +0300</tspan>
<tspan x="10" y="698">- npm publish 2016.3.3</tspan>
<tspan x="10" y="714">- fix race-condition for parallel npm install</tspan>
<tspan x="10" y="730"></tspan>
<tspan x="10" y="746">2016-04-20 16:14:19 +0300</tspan>
<tspan x="10" y="762">- npm publish 2016.3.2</tspan>
<tspan x="10" y="778">- add file cli.js</tspan>
<tspan x="10" y="794">- fix npm install</tspan>
<tspan x="10" y="810"></tspan>
<tspan x="10" y="826">2016-04-20 13:49:12 +0300</tspan>
<tspan x="10" y="842">- npm publish 2016.3.1</tspan>
<tspan x="10" y="858">- upgrade to electron @ v0.36.12</tspan>
<tspan x="10" y="874"></tspan>
<tspan x="10" y="890">2016-02-29 22:29:34 +0800</tspan>
<tspan x="10" y="906">- npm publish 2015.12.4</tspan>
<tspan x="10" y="922">- upgrade to electron @ v0.35.6</tspan>
<tspan x="10" y="938"></tspan>
<tspan x="10" y="954">2015-12-28 15:31:59 +0800</tspan>
<tspan x="10" y="970">- npm publish 2015.12.3</tspan>
<tspan x="10" y="986">- remove linux unzip dependency by including busybox.unzip @ https://busybox.net/downloads/binar\</tspan>
<tspan x="10" y="1002">ies/1.21.1/busybox-i486</tspan>
<tspan x="10" y="1018"></tspan>
<tspan x="10" y="1034">2015-12-06 12:37:28 +0800</tspan>
<tspan x="10" y="1050">- npm publish 2015.11.2</tspan>
<tspan x="10" y="1066">- upgrade to electron @ 0.35.4</tspan>
<tspan x="10" y="1082"></tspan>
<tspan x="10" y="1098">2015-11-28 23:13:16 +0800</tspan>
<tspan x="10" y="1114">- npm publish 2015.11.1</tspan>
<tspan x="10" y="1130">- update to electron @ 0.35.2</tspan>
<tspan x="10" y="1146">- add file test.js</tspan>
<tspan x="10" y="1162"></tspan>
<tspan x="10" y="1178">2015-11-22 12:22:38 +0800</tspan>
<tspan x="10" y="1194">- npm publish 2015.10.5</tspan>
<tspan x="10" y="1210">- change name from electron-prebuilt-lite to electron-lite</tspan>
<tspan x="10" y="1226">- update devDependency with utility2 @ 2015.11.6</tspan>
<tspan x="10" y="1242"></tspan>
<tspan x="10" y="1258">2015-11-20 17:06:31 +0800</tspan>
<tspan x="10" y="1274">- npm publish 2015.10.4</tspan>
<tspan x="10" y="1290">- update to electron @ 0.35.1</tspan>
<tspan x="10" y="1306">- update devDependencty to utility2@2015.11.4</tspan>
<tspan x="10" y="1322">- fix quickstart screen-capture example</tspan>
<tspan x="10" y="1338"></tspan>
<tspan x="10" y="1354">2015-11-20 04:22:14 +0800</tspan>
<tspan x="10" y="1370">- npm publish 2015.10.3</tspan>
<tspan x="10" y="1386">- fix linux build</tspan>
<tspan x="10" y="1402"></tspan>
<tspan x="10" y="1418">2015-11-20 04:19:26 +0800</tspan>
<tspan x="10" y="1434">fix linux build</tspan>
<tspan x="10" y="1450"></tspan>
<tspan x="10" y="1466">2015-11-20 01:56:19 +0800</tspan>
<tspan x="10" y="1482">- npm publish 2015.10.2</tspan>
<tspan x="10" y="1498"></tspan>
<tspan x="10" y="1514">2014-03-26 02:31:50 +0700</tspan>
<tspan x="10" y="1530">add blank README.md</tspan>
</text>
</svg>
